<?xml version="1.0" encoding="UTF-8"?>
<svg id="Layer_1" xmlns="http://www.w3.org/2000/svg" version="1.1" viewBox="0 0 200 66.6">
  <!-- Generator: Adobe Illustrator 30.3.0, SVG Export Plug-In . SVG Version: 2.1.3 Build 182)  -->
  <defs>
    <style>
      .st0 {
        fill: #fff;
      }
    </style>
  </defs>
  <path class="st0" d="M31,13.9h5.5l-7.5,22.2h-3.9l-3-11.3-2.9,11.3h-4L7.8,13.9h5.4l4.1,13.3,2.7-10.1h4.2l2.7,10.2,4.1-13.3Z"/>
  <path class="st0" d="M38,36v-15h4.8v15h-4.8Z"/>
  <path class="st0" d="M56.7,21.1l-1.1,4.5c-.9-.5-1.7-.6-2.2-.6-1.9,0-3.4,1.6-3.4,6v5h-4.8v-15h4.7v3.2c.9-2.5,2.7-3.6,4.5-3.6s1.5,0,2.3.5Z"/>
  <path class="st0" d="M72.8,29.9h-11c.5,1.4,1.7,2.4,3.5,2.4s2.9-.6,3.8-1.5l2.4,3.1c-1.5,1.6-4.1,2.6-6.6,2.6-4.8,0-8.1-3.3-8.1-7.9s3.8-8,8.1-8,7.9,3,7.9,7.6,0,1,0,1.7ZM68.1,27.1c0-1.5-1.4-2.5-3.1-2.5s-2.8.7-3.3,2.5h6.4Z"/>
  <path class="st0" d="M83.7,17.2c-2.3,0-3.2,1.2-3.2,3v.8h3.2v3.6h-3.2v11.4h-4.8v-11.4h-2.8v-3.6h2.8v-.9c0-4.7,2.6-7.2,7-7.2h1.9v4.4h-.9Z"/>
  <path class="st0" d="M97.1,21.1l-1.1,4.5c-.9-.5-1.7-.6-2.2-.6-1.9,0-3.4,1.6-3.4,6v5h-4.8v-15h4.7v3.2c.9-2.5,2.7-3.6,4.5-3.6s1.5,0,2.3.5Z"/>
  <path class="st0" d="M109.2,21h4.8v15h-4.8v-1.9c-1,1.4-2.9,2.3-4.8,2.3-4.2,0-7.2-3.2-7.2-7.9s3-7.9,7.2-7.9,3.7.8,4.7,2.2v-1.8ZM109,28.5c0-2-1.5-3.5-3.5-3.5s-3.4,1.6-3.4,3.5,1.4,3.5,3.5,3.5,3.4-1.6,3.4-3.5Z"/>
  <path class="st0" d="M140.6,28v8.1h-4.8v-8c0-2.3-1.2-3.1-2.4-3.1s-2.6,1-2.6,3.7v7.3h-4.8v-7.9c0-2.3-1.2-3.2-2.4-3.2s-2.6.6-2.6,3.2v7.9h-4.8v-15h4.8v2.9c.3-2.3,2.5-3.3,4.1-3.3,2.2,0,3.9,1.1,4.8,2.9,1-2,3.3-2.9,4.9-2.9,3.8,0,5.7,2.7,5.7,7.3Z"/>
  <path class="st0" d="M158,29.9h-11c.5,1.4,1.7,2.4,3.5,2.4s2.9-.6,3.8-1.5l2.4,3.1c-1.5,1.6-4.1,2.6-6.6,2.6-4.8,0-8.1-3.3-8.1-7.9s3.8-8,8.1-8,7.9,3,7.9,7.6,0,1,0,1.7ZM153.3,27.1c0-1.5-1.4-2.5-3.1-2.5s-2.8.7-3.3,2.5h6.4Z"/>
  <path class="st0" d="M91.5,38.4h5.5l-7.5,22.2h-3.9l-3-11.3-2.9,11.3h-4l-7.5-22.2h5.4l4.1,13.3,2.7-10.1h4.2l2.7,10.2,4.1-13.3Z"/>
  <path class="st0" d="M98.5,60.6v-15h4.8v15h-4.8Z"/>
  <path class="st0" d="M119.5,45.6v3.5l-6.8,7.1h6.8v4.4h-13.6v-3.5l6.7-7.1h-6.2v-4.4h13.2Z"/>
  <path class="st0" d="M132.4,45.6h4.8v15h-4.8v-1.9c-1,1.4-2.9,2.3-4.8,2.3-4.2,0-7.2-3.2-7.2-7.9s3-7.9,7.2-7.9,3.7.8,4.7,2.2v-1.8ZM132.3,53.1c0-2-1.5-3.5-3.5-3.5s-3.4,1.6-3.4,3.5,1.4,3.5,3.5,3.5,3.4-1.6,3.4-3.5Z"/>
  <path class="st0" d="M151.1,45.7l-1.1,4.5c-.9-.5-1.7-.6-2.2-.6-1.9,0-3.4,1.6-3.4,6v5h-4.8v-15h4.7v3.2c.9-2.5,2.7-3.6,4.5-3.6s1.5,0,2.3.5Z"/>
  <path class="st0" d="M162.3,37.4h4.7v23.2h-4.7v-1.7c-1.1,1.4-3.1,2.1-4.7,2.1-3.7,0-7.3-3.1-7.3-7.9s3.5-7.9,7.3-7.9,3.6.6,4.7,2v-9.8ZM162.1,53.1c0-1.9-1.6-3.5-3.4-3.5s-3.5,1.6-3.5,3.5,1.6,3.5,3.5,3.5,3.4-1.6,3.4-3.5Z"/>
  <path class="st0" d="M166.7,30.7c-.3-.4-.8-.7-1.4-.6s-1.3.4-1.9,1c.1-.6.4-1.2.8-1.7s.5-1.3,0-1.9c-2.5-3.2-5.1-5.9-8.2-8.5h0c-1.2-1-.3-2.9,1.2-2.6,1.3.3,2.6.9,3.7,1.7,1.4.9,2.6,2,3.7,3.2,3.4,3.6,6,8,7.5,12.7l.6,2.1c0-4.1-1.7-8.3-3.9-11.7-1.6-2.4-3.5-4.5-5.8-6.4l1.2-.4c.5-.2.9-.5,1.4-.8s.9-.4,1.3-.2,1.1.5,1.7.7c4.1,2,8.3,4.7,11.6,7.9.3.3.5.8.4,1.2,0,.8,0,1.5,0,2.3l.3-.5c2.1,1.2,4.2,2.5,6,4.1s1.7,1.7.9,2.2c-1.6.9-4.6.6-6.5.3s-4.1-.7-6.1-1.4c-1-.4-2.1.4-2,1.5s0,1.1,0,1.7-.2,1-.8,1.3c-.7.4-1.8,0-2.2-.8-1-2.1-2.2-4.1-3.6-6l-.3-.5ZM181.7,29.7c.2-.3,0-.6-.3-.7-.2.5-.7.8-1.1,1-1.1.4-2.3.4-3.5.5,1.3.3,4.1.3,4.9-.7Z"/>
  <path class="st0" d="M181.3,22.9l-1.5-1.5c-1.6-1.5-3.4-2.7-5.3-3.9-1.8-1.1-3.6-2-5.7-2.7l.8-.8c.4-.4,1-.5,1.6-.3l1.2.5c0,0-.1-.1-.2-.2-.7-.6-.7-1.7,0-2.3l2.4-1.9c1.2-1,2.4-1.9,3.8-2.7,3.1-1.9,6.6-3.1,10.2-2.7s1,.1,1.4.2c1.4.3,1.6,2.3.2,2.9s-.7.3-1,.5c-2.6,1.4-4.5,3.8-5.4,6.7-.7-.7-1.2-1.3-2-1.8l1.1,1.8c.4.6.4,1.4.2,2s-.5,1.4-.7,2.1-1.5,1.4-2.3.7-.9-.6-1.3-1c0,0-.1,0-.1,0h0c.9.9,1.7,1.6,2.4,2.5s.4.8.3,1.3l-.2.6ZM175.2,14.5c1-1.8,2.1-3.2,3.7-4.5,1.8-1.5,3.8-2.8,6-3.6,1.4-.5,2.8-.7,4.3-.8-2.7-.6-5.9.5-8.2,2-1.7,1-3.1,2.2-4.2,3.8,0,0,0,.1-.1.2-.5.9-1.2,1.8-1.5,2.9Z"/>
  <path class="st0" d="M189.9,14.8c-.3-.6-.9-.9-1.5-.9h-1.2c0,.1.9-.7.9-.7.5-.4.6-1.1.3-1.7l-.6-1.3,1.1.6c.6.3,1.3.2,1.8-.2s.6-.6,1-.9c0,.5-.1.9-.2,1.3-.1.6.2,1.3.7,1.6l1.1.7-1.4.2c-.6,0-1.1.5-1.3,1.1l-.3,1.2-.5-1.1Z"/>
  <path class="st0" d="M101.7,44.1c-.3-.6-1-.8-1.6-.7l-1.2.3.8-.9c.4-.5.5-1.2.2-1.7l-.7-1.2,1.2.5c.6.3,1.3,0,1.7-.4s.6-.6.9-1c0,.5,0,.9,0,1.3,0,.6.3,1.3.9,1.5l1.2.5-1.3.3c-.6.1-1.1.7-1.1,1.3l-.2,1.3-.6-1Z"/>
  <path class="st0" d="M40.7,19.5c-.3-.6-1-.8-1.6-.7l-1.2.3.8-.9c.4-.5.5-1.2.2-1.7l-.7-1.2,1.2.5c.6.3,1.3,0,1.7-.4s.6-.6.9-1c0,.5,0,.9,0,1.3,0,.6.3,1.3.9,1.5l1.2.5-1.3.3c-.6.1-1.1.7-1.1,1.3l-.2,1.3-.6-1Z"/>
</svg>